<mxfile host="Electron" agent="Mozilla/5.0 (Windows NT 10.0; Win64; x64) AppleWebKit/537.36 (KHTML, like Gecko) draw.io/24.7.5 Chrome/126.0.6478.183 Electron/31.3.0 Safari/537.36" version="24.7.5">
  <diagram name="Page-1" id="G2yo5OGb9BoVLw5yF0v6">
    <mxGraphModel dx="1216" dy="718" grid="1" gridSize="10" guides="1" tooltips="1" connect="1" arrows="1" fold="1" page="1" pageScale="1" pageWidth="850" pageHeight="1100" math="0" shadow="0">
      <root>
        <mxCell id="0" />
        <mxCell id="1" parent="0" />
        <mxCell id="kI64n_aWPySX3VREWzUz-1" value="Usuário" style="shape=umlActor;verticalLabelPosition=bottom;verticalAlign=top;html=1;outlineConnect=0;" parent="1" vertex="1">
          <mxGeometry x="160" y="412" width="30" height="60" as="geometry" />
        </mxCell>
        <mxCell id="kI64n_aWPySX3VREWzUz-2" value="" style="rounded=0;whiteSpace=wrap;html=1;" parent="1" vertex="1">
          <mxGeometry x="310" y="150" width="640" height="890" as="geometry" />
        </mxCell>
        <mxCell id="z-AhGHYFtcSyj8guO42J-1" value="Fazer login" style="ellipse;whiteSpace=wrap;html=1;" parent="1" vertex="1">
          <mxGeometry x="370" y="632" width="170" height="90" as="geometry" />
        </mxCell>
        <mxCell id="z-AhGHYFtcSyj8guO42J-2" value="Subscrever no status de balneabilidade de praias" style="ellipse;whiteSpace=wrap;html=1;" parent="1" vertex="1">
          <mxGeometry x="370" y="212" width="170" height="90" as="geometry" />
        </mxCell>
        <mxCell id="z-AhGHYFtcSyj8guO42J-5" value="&lt;b&gt;Sistema de visualização, subscrição e notificação em relação ao status de balneabilidade de praias do RJ&lt;/b&gt;" style="text;html=1;align=center;verticalAlign=middle;whiteSpace=wrap;rounded=0;" parent="1" vertex="1">
          <mxGeometry x="327.03999999999996" y="160" width="605.93" height="30" as="geometry" />
        </mxCell>
        <mxCell id="z-AhGHYFtcSyj8guO42J-6" value="Visualizar o status de balneabilidade de praias" style="ellipse;whiteSpace=wrap;html=1;" parent="1" vertex="1">
          <mxGeometry x="370" y="772" width="170" height="90" as="geometry" />
        </mxCell>
        <mxCell id="z-AhGHYFtcSyj8guO42J-8" value="" style="endArrow=none;html=1;rounded=0;entryX=0.027;entryY=0.663;entryDx=0;entryDy=0;entryPerimeter=0;" parent="1" target="z-AhGHYFtcSyj8guO42J-2" edge="1">
          <mxGeometry width="50" height="50" relative="1" as="geometry">
            <mxPoint x="200" y="442" as="sourcePoint" />
            <mxPoint x="290" y="202" as="targetPoint" />
          </mxGeometry>
        </mxCell>
        <mxCell id="z-AhGHYFtcSyj8guO42J-10" value="Cadastrar no sistema" style="ellipse;whiteSpace=wrap;html=1;" parent="1" vertex="1">
          <mxGeometry x="370" y="352" width="170" height="90" as="geometry" />
        </mxCell>
        <mxCell id="z-AhGHYFtcSyj8guO42J-11" value="" style="endArrow=none;html=1;rounded=0;entryX=0;entryY=0.5;entryDx=0;entryDy=0;" parent="1" target="z-AhGHYFtcSyj8guO42J-10" edge="1">
          <mxGeometry width="50" height="50" relative="1" as="geometry">
            <mxPoint x="200" y="442" as="sourcePoint" />
            <mxPoint x="290" y="202" as="targetPoint" />
          </mxGeometry>
        </mxCell>
        <mxCell id="z-AhGHYFtcSyj8guO42J-12" value="Criar publicações e comentários no blog" style="ellipse;whiteSpace=wrap;html=1;" parent="1" vertex="1">
          <mxGeometry x="370" y="492" width="170" height="90" as="geometry" />
        </mxCell>
        <mxCell id="z-AhGHYFtcSyj8guO42J-14" value="" style="endArrow=none;html=1;rounded=0;entryX=0;entryY=0.5;entryDx=0;entryDy=0;" parent="1" target="z-AhGHYFtcSyj8guO42J-12" edge="1">
          <mxGeometry width="50" height="50" relative="1" as="geometry">
            <mxPoint x="200" y="442" as="sourcePoint" />
            <mxPoint x="370" y="254" as="targetPoint" />
          </mxGeometry>
        </mxCell>
        <mxCell id="z-AhGHYFtcSyj8guO42J-17" value="Visualizar publicações e comentários no blog" style="ellipse;whiteSpace=wrap;html=1;" parent="1" vertex="1">
          <mxGeometry x="370" y="912" width="170" height="90" as="geometry" />
        </mxCell>
        <mxCell id="z-AhGHYFtcSyj8guO42J-19" value="" style="endArrow=none;html=1;rounded=0;entryX=0;entryY=0.5;entryDx=0;entryDy=0;" parent="1" edge="1" target="z-AhGHYFtcSyj8guO42J-6">
          <mxGeometry width="50" height="50" relative="1" as="geometry">
            <mxPoint x="201" y="442" as="sourcePoint" />
            <mxPoint x="370" y="814" as="targetPoint" />
          </mxGeometry>
        </mxCell>
        <mxCell id="z-AhGHYFtcSyj8guO42J-21" value="" style="endArrow=none;html=1;rounded=0;entryX=0;entryY=0.5;entryDx=0;entryDy=0;" parent="1" target="z-AhGHYFtcSyj8guO42J-1" edge="1">
          <mxGeometry width="50" height="50" relative="1" as="geometry">
            <mxPoint x="201" y="442" as="sourcePoint" />
            <mxPoint x="370" y="814" as="targetPoint" />
          </mxGeometry>
        </mxCell>
        <mxCell id="xYICyBrRSa4js9IPBLy6-1" value="" style="endArrow=none;html=1;rounded=0;entryX=0;entryY=0.5;entryDx=0;entryDy=0;" edge="1" parent="1" target="z-AhGHYFtcSyj8guO42J-17">
          <mxGeometry width="50" height="50" relative="1" as="geometry">
            <mxPoint x="201" y="442" as="sourcePoint" />
            <mxPoint x="370" y="817" as="targetPoint" />
          </mxGeometry>
        </mxCell>
      </root>
    </mxGraphModel>
  </diagram>
</mxfile>
